<svg width="120" height="120" viewBox="0 0 120 120" fill="none" xmlns="http://www.w3.org/2000/svg" role="img" aria-label="Pague Menos">
  <path d="M60 4c22.9 0 34.4 0 44.6 6.2A44 44 0 0 1 109.8 15.4C116 25.6 116 37.1 116 60s0 34.4-6.2 44.6a44 44 0 0 1-5.2 5.2C94.4 116 82.9 116 60 116s-34.4 0-44.6-6.2a44 44 0 0 1-5.2-5.2C4 94.4 4 82.9 4 60s0-34.4 6.2-44.6A44 44 0 0 1 15.4 10.2C25.6 4 37.1 4 60 4Z" fill="#FF2342"/>
  <path d="M60 30c5.2 0 7.3.6 8.8 2.1 1.3 1.3 1.9 3 2 6.7l.2 8.2 8.2.2c3.7.1 5.4.7 6.7 2 1.5 1.5 2.1 3.6 2.1 8.8s-.6 7.3-2.1 8.8c-1.3 1.3-3 1.9-6.7 2l-8.2.2-.2 8.2c-.1 3.7-.7 5.4-2 6.7-1.5 1.5-3.6 2.1-8.8 2.1s-7.3-.6-8.8-2.1c-1.3-1.3-1.9-3-2-6.7l-.2-8.2-8.2-.2c-3.7-.1-5.4-.7-6.7-2C30.6 67.3 30 65.2 30 60s.6-7.3 2.1-8.8c1.3-1.3 3-1.9 6.7-2l8.2-.2.2-8.2c.1-3.7.7-5.4 2-6.7C52.7 30.6 54.8 30 60 30Z" fill="#fff"/>
</svg>
